# xmcd CD database file
#
# Track frame offsets:
#	150
#	25492
#	42530
#	58232
#	94522
#	121470
#	148197
#	165985
#	186950
#	208362
#	228512
#	248287
#
# Disc length: 3618 seconds
#
# Revision: 0
# Processed by: cddbd v1.5.1PL0 Copyright (c) Steve Scherf et al.
# Submitted via: CDex 1.51
#
DISCID=ac0e200c
DTITLE=Marcos Ariel e Jean-Pierre Zanella - Diplomatie
DYEAR=2002
DGENRE=Jazz
TTITLE0=Wave
TTITLE1=Carminha
TTITLE2=Calma
TTITLE3=Round Midnight
TTITLE4=Lua Branca
TTITLE5=Caminho
TTITLE6=O Canadá
TTITLE7=Night Train
TTITLE8=Insensatez
TTITLE9=Variações sobre o Hino Nacional Brasileiro
TTITLE10=Donna Lee
TTITLE11=L`amour et L`amitiè
EXTD=YEAR: 2002
EXTT0=
EXTT1=
EXTT2=
EXTT3=
EXTT4=
EXTT5=
EXTT6=
EXTT7=
EXTT8=
EXTT9=
EXTT10=
EXTT11=
PLAYORDER=
